HIERARCHY
ROOT root
{
	OFFSET	0	13.1	24.9
	CHANNELS 6  Xposition Yposition Zposition Xrotation Yrotation Zrotation
	JOINT spine_1
	{
		OFFSET	0	9.99999	0
		CHANNELS 3  Xrotation Yrotation Zrotation
		JOINT spine_2
		{
			OFFSET	0	112	-10
			CHANNELS 3  Xrotation Yrotation Zrotation
			JOINT spine_3
			{
				OFFSET	0	206.5	19.3
				CHANNELS 3  Xrotation Yrotation Zrotation
				JOINT spine_4
				{
					OFFSET	0	110.4	14.6
					CHANNELS 3  Xrotation Yrotation Zrotation
					JOINT neck_1
					{
						OFFSET	0	71.8	-50.3
						CHANNELS 3  Xrotation Yrotation Zrotation
						JOINT neck_2
						{
							OFFSET	0	86.2	-25.8
							CHANNELS 3  Xrotation Yrotation Zrotation
							JOINT head_ee
							{
								OFFSET	0	179.8	-8.7
								CHANNELS 3  Xrotation Yrotation Zrotation
								End Site
								{
									OFFSET	1	0	0
								}
							}
						}
					}
					JOINT left_clavicle
					{
						OFFSET	-43.2	22.4	-70.8
						CHANNELS 3  Xrotation Yrotation Zrotation
						JOINT left_shoulder
						{
							OFFSET	-93.9	-5.79999	48.7
							CHANNELS 3  Xrotation Yrotation Zrotation
							JOINT left_elbow
							{
								OFFSET	-291.4	-30.8	15.2
								CHANNELS 3  Xrotation Yrotation Zrotation
								JOINT left_lowarm_twist
								{
									OFFSET	-110.7	-3.89999	13.6
									CHANNELS 3  Xrotation Yrotation Zrotation
									JOINT left_hand
									{
										OFFSET	-110.7	-3.89999	13.6
										CHANNELS 3  Xrotation Yrotation Zrotation
										JOINT left_ee
										{
											OFFSET	-80.8	-5.10001	12.1
											CHANNELS 3  Xrotation Yrotation Zrotation
											End Site
											{
												OFFSET	1	0	0
											}
										}
									}
								}
							}
						}
					}
					JOINT right_clavicle
					{
						OFFSET	43.2	22.4	-70.8
						CHANNELS 3  Xrotation Yrotation Zrotation
						JOINT right_shoulder
						{
							OFFSET	93.9	-5.79999	48.7
							CHANNELS 3  Xrotation Yrotation Zrotation
							JOINT right_elbow
							{
								OFFSET	291.4	-30.8	15.2
								CHANNELS 3  Xrotation Yrotation Zrotation
								JOINT right_lowarm_twist
								{
									OFFSET	110.7	-3.89999	13.6
									CHANNELS 3  Xrotation Yrotation Zrotation
									JOINT right_hand
									{
										OFFSET	110.7	-3.89999	13.6
										CHANNELS 3  Xrotation Yrotation Zrotation
										JOINT right_ee
										{
											OFFSET	80.8	-5.10001	12.1
											CHANNELS 3  Xrotation Yrotation Zrotation
											End Site
											{
												OFFSET	1	0	0
											}
										}
									}
								}
							}
						}
					}
				}
			}
		}
	}
	JOINT left_hip
	{
		OFFSET	-82.8	-127.5	0.300001
		CHANNELS 3  Xrotation Yrotation Zrotation
		JOINT left_knee
		{
			OFFSET	-28.2	-396.7	2.2
			CHANNELS 3  Xrotation Yrotation Zrotation
			JOINT left_ankle
			{
				OFFSET	-11.7	-411.3	35.4
				CHANNELS 3  Xrotation Yrotation Zrotation
				JOINT left_toes
				{
					OFFSET	0	-60	-88.6
					CHANNELS 3  Xrotation Yrotation Zrotation
					JOINT left_foot_ee
					{
						OFFSET	-22.5	-16.5	-42.2
						CHANNELS 3  Xrotation Yrotation Zrotation
						End Site
						{
							OFFSET	1	0	0
						}
					}
				}
			}
		}
	}
	JOINT right_hip
	{
		OFFSET	82.8	-127.5	0.300001
		CHANNELS 3  Xrotation Yrotation Zrotation
		JOINT right_knee
		{
			OFFSET	28.2	-396.7	2.2
			CHANNELS 3  Xrotation Yrotation Zrotation
			JOINT right_ankle
			{
				OFFSET	11.7	-411.3	35.4
				CHANNELS 3  Xrotation Yrotation Zrotation
				JOINT right_toes
				{
					OFFSET	0	-60	-88.6
					CHANNELS 3  Xrotation Yrotation Zrotation
					JOINT right_foot_ee
					{
						OFFSET	22.5	-16.5	-42.2
						CHANNELS 3  Xrotation Yrotation Zrotation
						End Site
						{
							OFFSET	1	0	0
						}
					}
				}
			}
		}
	}
}
MOTION
Frames: 9
Frame Time: 0.02
3574.42 741.953 -1474.73 4.98484285929 58.9687689473 -2.56371005831 -1.04237 0.564694 3.31491 -1.03632 0.352734 3.34408 -1.0107 -0.417179 3.33666 -1.02621 0.114712 3.36065 -23.8382 17.4956 -9.92216 -26.8737 37.9482 0.577525 -0.0 0.0 -0.0 -2.41517 23.2027 -0.638865 4.65404 -15.5707 60.2419 2.81937 -54.3868 1.44876 -73.3435 -6.97319 5.31972 0.819168 -6.99873 2.56057 -0.0 0.0 -0.0 12.726 24.4982 -25.2115 3.51589 -34.8035 -68.6483 1.01655 26.7278 -0.241505 71.1282 2.85827 8.03278 -3.16862 -27.2358 6.72737 0.0 0.0 0.0 -9.2515 29.8298 -3.29368 7.80064 -0.398851 -1.12912 15.6521 4.58424 -2.18063 -16.5872 0.0 0.0 -0.0 0.0 -0.0 24.8454 56.0238 -22.9151 -22.8129 -0.251636 -3.4687 33.6013 0.277164 4.28403 -22.7193 0.0 0.0 0.0 0.0 0.0 
3561.8929473 740.108 -1482.97273472 5.30467979393 59.8605914047 -3.2661564794 -0.874238 0.51963 3.38893 -0.8679 0.30306 3.41509 -0.844974 -0.471982 3.39589 -0.861058 0.0699317 3.42778 -24.8946 18.3601 -7.11136 -28.3695 38.2018 4.15929 -0.0 0.0 -0.0 -2.29855 23.2633 -0.467203 5.531 -12.9794 60.218 2.64689 -52.6594 1.31005 -73.8419 -7.03689 5.32018 0.776719 -5.79635 2.78233 -0.0 0.0 -0.0 12.4621 23.9793 -24.6565 2.61146 -35.6343 -69.465 0.957414 25.3734 -0.215533 71.2086 2.86674 8.03868 -3.0662 -26.331 6.66944 0.0 0.0 0.0 -9.52382 29.4837 -3.52233 6.60191 -0.327587 -0.959222 17.2176 2.80049 -2.38754 -17.4295 0.0 0.0 -0.0 0.0 -0.0 23.5953 55.401 -22.2742 -24.3556 -0.218565 -3.70312 34.7974 1.98925 4.41709 -22.1134 0.0 0.0 0.0 0.0 0.0 
3562.05052275 740.108 -1483.20736737 5.13899285881 58.7851573597 -3.07351833443 -0.874238 0.51963 3.38893 -0.8679 0.30306 3.41509 -0.844974 -0.471982 3.39589 -0.861058 0.0699317 3.42778 -24.8946 18.3601 -7.11136 -28.3695 38.2018 4.15929 -0.0 0.0 -0.0 -2.29855 23.2633 -0.467203 5.531 -12.9794 60.218 2.64689 -52.6594 1.31005 -73.8419 -7.03689 5.32018 0.776719 -5.79635 2.78233 -0.0 0.0 -0.0 12.4621 23.9793 -24.6565 2.61146 -35.6343 -69.465 0.957414 25.3734 -0.215533 71.2086 2.86674 8.03868 -3.0662 -26.331 6.66944 0.0 0.0 0.0 -9.52382 29.4837 -3.52233 6.60191 -0.327587 -0.959222 17.2176 2.80049 -2.38754 -17.4295 0.0 0.0 -0.0 0.0 -0.0 23.5953 55.401 -22.2742 -24.3556 -0.218565 -3.70312 34.7974 1.98925 4.41709 -22.1134 0.0 0.0 0.0 0.0 0.0 
3562.21779076 740.108 -1483.44641066 4.98023996189 57.6747419046 -2.88679594598 -0.874238 0.51963 3.38893 -0.8679 0.30306 3.41509 -0.844974 -0.471982 3.39589 -0.861058 0.0699317 3.42778 -24.8946 18.3601 -7.11136 -28.3695 38.2018 4.15929 -0.0 0.0 -0.0 -2.29855 23.2633 -0.467203 5.531 -12.9794 60.218 2.64689 -52.6594 1.31005 -73.8419 -7.03689 5.32018 0.776719 -5.79635 2.78233 -0.0 0.0 -0.0 12.4621 23.9793 -24.6565 2.61146 -35.6343 -69.465 0.957414 25.3734 -0.215533 71.2086 2.86674 8.03868 -3.0662 -26.331 6.66944 0.0 0.0 0.0 -9.52382 29.4837 -3.52233 6.60191 -0.327587 -0.959222 17.2176 2.80049 -2.38754 -17.4295 0.0 0.0 -0.0 0.0 -0.0 23.5953 55.401 -22.2742 -24.3556 -0.218565 -3.70312 34.7974 1.98925 4.41709 -22.1134 0.0 0.0 0.0 0.0 0.0 
3562.37374893 740.108 -1483.66070883 4.84581101592 56.6657738841 -2.72682205269 -0.874238 0.51963 3.38893 -0.8679 0.30306 3.41509 -0.844974 -0.471982 3.39589 -0.861058 0.0699317 3.42778 -24.8946 18.3601 -7.11136 -28.3695 38.2018 4.15929 -0.0 0.0 -0.0 -2.29855 23.2633 -0.467203 5.531 -12.9794 60.218 2.64689 -52.6594 1.31005 -73.8419 -7.03689 5.32018 0.776719 -5.79635 2.78233 -0.0 0.0 -0.0 12.4621 23.9793 -24.6565 2.61146 -35.6343 -69.465 0.957414 25.3734 -0.215533 71.2086 2.86674 8.03868 -3.0662 -26.331 6.66944 0.0 0.0 0.0 -9.52382 29.4837 -3.52233 6.60191 -0.327587 -0.959222 17.2176 2.80049 -2.38754 -17.4295 0.0 0.0 -0.0 0.0 -0.0 23.5953 55.401 -22.2742 -24.3556 -0.218565 -3.70312 34.7974 1.98925 4.41709 -22.1134 0.0 0.0 0.0 0.0 0.0 
3562.62976363 740.108 -1483.99606989 4.64901031941 55.0591927164 -2.48907538483 -0.874238 0.51963 3.38893 -0.8679 0.30306 3.41509 -0.844974 -0.471982 3.39589 -0.861058 0.0699317 3.42778 -24.8946 18.3601 -7.11136 -28.3695 38.2018 4.15929 -0.0 0.0 -0.0 -2.29855 23.2633 -0.467203 5.531 -12.9794 60.218 2.64689 -52.6594 1.31005 -73.8419 -7.03689 5.32018 0.776719 -5.79635 2.78233 -0.0 0.0 -0.0 12.4621 23.9793 -24.6565 2.61146 -35.6343 -69.465 0.957414 25.3734 -0.215533 71.2086 2.86674 8.03868 -3.0662 -26.331 6.66944 0.0 0.0 0.0 -9.52382 29.4837 -3.52233 6.60191 -0.327587 -0.959222 17.2176 2.80049 -2.38754 -17.4295 0.0 0.0 -0.0 0.0 -0.0 23.5953 55.401 -22.2742 -24.3556 -0.218565 -3.70312 34.7974 1.98925 4.41709 -22.1134 0.0 0.0 0.0 0.0 0.0 
3562.88171346 740.108 -1484.30797832 4.47936840373 53.53202109 -2.28018537795 -0.874238 0.51963 3.38893 -0.8679 0.30306 3.41509 -0.844974 -0.471982 3.39589 -0.861058 0.0699317 3.42778 -24.8946 18.3601 -7.11136 -28.3695 38.2018 4.15929 -0.0 0.0 -0.0 -2.29855 23.2633 -0.467203 5.531 -12.9794 60.218 2.64689 -52.6594 1.31005 -73.8419 -7.03689 5.32018 0.776719 -5.79635 2.78233 -0.0 0.0 -0.0 12.4621 23.9793 -24.6565 2.61146 -35.6343 -69.465 0.957414 25.3734 -0.215533 71.2086 2.86674 8.03868 -3.0662 -26.331 6.66944 0.0 0.0 0.0 -9.52382 29.4837 -3.52233 6.60191 -0.327587 -0.959222 17.2176 2.80049 -2.38754 -17.4295 0.0 0.0 -0.0 0.0 -0.0 23.5953 55.401 -22.2742 -24.3556 -0.218565 -3.70312 34.7974 1.98925 4.41709 -22.1134 0.0 0.0 0.0 0.0 0.0 
3563.27114788 740.108 -1484.75860017 4.25434796958 51.2628533382 -1.99621865223 -0.874238 0.51963 3.38893 -0.8679 0.30306 3.41509 -0.844974 -0.471982 3.39589 -0.861058 0.0699317 3.42778 -24.8946 18.3601 -7.11136 -28.3695 38.2018 4.15929 -0.0 0.0 -0.0 -2.29855 23.2633 -0.467203 5.531 -12.9794 60.218 2.64689 -52.6594 1.31005 -73.8419 -7.03689 5.32018 0.776719 -5.79635 2.78233 -0.0 0.0 -0.0 12.4621 23.9793 -24.6565 2.61146 -35.6343 -69.465 0.957414 25.3734 -0.215533 71.2086 2.86674 8.03868 -3.0662 -26.331 6.66944 0.0 0.0 0.0 -9.52382 29.4837 -3.52233 6.60191 -0.327587 -0.959222 17.2176 2.80049 -2.38754 -17.4295 0.0 0.0 -0.0 0.0 -0.0 23.5953 55.401 -22.2742 -24.3556 -0.218565 -3.70312 34.7974 1.98925 4.41709 -22.1134 0.0 0.0 0.0 0.0 0.0 
3563.67798407 740.108 -1485.19321264 4.05697241368 48.9940733075 -1.73909692823 -0.874238 0.51963 3.38893 -0.8679 0.30306 3.41509 -0.844974 -0.471982 3.39589 -0.861058 0.0699317 3.42778 -24.8946 18.3601 -7.11136 -28.3695 38.2018 4.15929 -0.0 0.0 -0.0 -2.29855 23.2633 -0.467203 5.531 -12.9794 60.218 2.64689 -52.6594 1.31005 -73.8419 -7.03689 5.32018 0.776719 -5.79635 2.78233 -0.0 0.0 -0.0 12.4621 23.9793 -24.6565 2.61146 -35.6343 -69.465 0.957414 25.3734 -0.215533 71.2086 2.86674 8.03868 -3.0662 -26.331 6.66944 0.0 0.0 0.0 -9.52382 29.4837 -3.52233 6.60191 -0.327587 -0.959222 17.2176 2.80049 -2.38754 -17.4295 0.0 0.0 -0.0 0.0 -0.0 23.5953 55.401 -22.2742 -24.3556 -0.218565 -3.70312 34.7974 1.98925 4.41709 -22.1134 0.0 0.0 0.0 0.0 0.0 
